<?xml version="1.0" standalone="no"?>
<!DOCTYPE svg PUBLIC "-//W3C//DTD SVG 20010904//EN"
 "http://www.w3.org/TR/2001/REC-SVG-20010904/DTD/svg10.dtd">
<svg version="1.0" xmlns="http://www.w3.org/2000/svg"
 width="783.000000pt" height="707.000000pt" viewBox="0 0 783.000000 707.000000"
 preserveAspectRatio="xMidYMid meet">

<g transform="translate(0.000000,707.000000) scale(0.100000,-0.100000)"
fill="#000000" stroke="none">
<path d="M6230 6134 c-703 -112 -1288 -691 -1439 -1425 -30 -145 -41 -301 -40
-569 l0 -245 23 67 c13 37 36 89 52 115 66 114 214 219 338 242 38 7 255 11
603 11 595 0 622 2 764 60 106 43 173 87 266 174 135 127 225 281 270 462 24
95 24 333 0 428 -90 360 -373 631 -714 684 -28 5 -79 3 -123 -4z"/>
<path d="M1332 6125 c-156 -44 -287 -121 -402 -238 -108 -111 -176 -228 -226
-392 -25 -83 -28 -104 -28 -255 0 -151 3 -173 28 -255 79 -264 250 -467 481
-576 159 -75 132 -72 810 -79 405 -4 621 -10 642 -17 168 -59 293 -188 338
-350 12 -43 13 -21 14 217 1 350 -20 512 -95 739 -197 588 -672 1042 -1238
1182 -147 37 -252 44 -324 24z"/>
<path d="M2273 5961 l-71 -6 23 -27 24 -28 1361 0 c1006 0 1367 -3 1383 -11
29 -16 37 -28 37 -62 0 -22 -19 -49 -80 -115 -225 -246 -363 -508 -450 -851
-68 -271 -63 -159 -70 -1941 -5 -1529 -7 -1618 -24 -1680 -49 -173 -146 -318
-280 -418 -40 -30 -27 -28 50 10 79 38 184 125 236 193 50 66 101 164 129 250
l24 70 6 1600 c4 1074 10 1622 17 1667 79 484 278 878 598 1188 55 53 119 112
144 132 l45 37 -1515 -1 c-833 -1 -1547 -4 -1587 -7z"/>
</g>
</svg>
