<?xml version="1.0" encoding="UTF-8"?>
<!DOCTYPE svg PUBLIC "-//W3C//DTD SVG 1.1//EN" "http://www.w3.org/Graphics/SVG/1.1/DTD/svg11.dtd">
<svg xmlns="http://www.w3.org/2000/svg" version="1.1" width="466px" height="531px" style="shape-rendering:geometricPrecision; text-rendering:geometricPrecision; image-rendering:optimizeQuality; fill-rule:evenodd; clip-rule:evenodd" xmlns:xlink="http://www.w3.org/1999/xlink">
<g><path style="opacity:1" fill="#fefefe" d="M -0.5,-0.5 C 154.833,-0.5 310.167,-0.5 465.5,-0.5C 465.5,176.5 465.5,353.5 465.5,530.5C 310.167,530.5 154.833,530.5 -0.5,530.5C -0.5,353.5 -0.5,176.5 -0.5,-0.5 Z"/></g>
<g><path style="opacity:1" fill="#33342f" d="M 269.5,127.5 C 230.5,127.5 191.5,127.5 152.5,127.5C 152.333,108.497 152.5,89.4971 153,70.5C 157.606,45.5753 171.439,28.0753 194.5,18C 227.504,11.6458 251.004,23.8125 265,54.5C 266.135,58.9047 267.468,63.2381 269,67.5C 269.5,87.4972 269.667,107.497 269.5,127.5 Z"/></g>
<g><path style="opacity:1" fill="#8acdc6" d="M 152.5,127.5 C 191.5,127.5 230.5,127.5 269.5,127.5C 285.206,127.118 300.872,127.618 316.5,129C 338.636,136.414 352.136,151.581 357,174.5C 360.863,196.047 356.197,215.38 343,232.5C 335.72,240.438 326.886,245.938 316.5,249C 300.539,250.385 284.539,250.885 268.5,250.5C 229.833,250.5 191.167,250.5 152.5,250.5C 121.481,255.904 98.648,244.904 84,217.5C 74.817,193.215 77.1503,170.215 91,148.5C 107.347,129.883 127.847,122.883 152.5,127.5 Z"/></g>
<g><path style="opacity:1" fill="#33342f" d="M 152.5,250.5 C 191.167,250.5 229.833,250.5 268.5,250.5C 268.333,286.168 268.5,321.835 269,357.5C 270.134,366.297 274.968,371.464 283.5,373C 298.531,373.145 313.531,373.812 328.5,375C 356.086,385.653 368.919,405.819 367,435.5C 364.459,460.022 351.625,476.189 328.5,484C 315.712,485.117 302.878,485.617 290,485.5C 205.225,491.311 159.559,451.977 153,367.5C 152.5,328.501 152.333,289.501 152.5,250.5 Z"/></g>
</svg>
